<svg xmlns="http://www.w3.org/2000/svg" xmlns:xlink="http://www.w3.org/1999/xlink" width="1200" zoomAndPan="magnify" viewBox="0 0 900 899.99999" height="1200" preserveAspectRatio="xMidYMid meet" version="1.0"><defs><clipPath id="ef367bb49a"><path d="M 417 75 L 824.410156 75 L 824.410156 483 L 417 483 Z M 417 75 " clip-rule="nonzero"/></clipPath><clipPath id="0516e09488"><path d="M 75.910156 417 L 483 417 L 483 825 L 75.910156 825 Z M 75.910156 417 " clip-rule="nonzero"/></clipPath></defs><g clip-path="url(#ef367bb49a)"><path fill="#b60909" d="M 463.066406 436.953125 C 433.617188 407.503906 417.40625 368.34375 417.417969 326.644531 C 417.429688 284.902344 433.703125 245.613281 463.238281 216.011719 L 557.136719 121.925781 C 618.109375 60.820312 717.320312 60.566406 778.292969 121.359375 C 778.347656 121.410156 778.40625 121.472656 778.464844 121.527344 C 807.875 150.9375 824.070312 190.09375 824.078125 231.8125 C 824.074219 273.578125 807.8125 312.875 778.296875 342.464844 L 684.390625 436.554688 C 623.417969 497.65625 524.203125 497.910156 463.230469 437.121094 C 463.179688 437.066406 463.121094 437.011719 463.066406 436.953125 Z M 733.648438 166.339844 C 733.617188 166.304688 733.582031 166.273438 733.546875 166.238281 C 697.3125 130.109375 638.296875 130.3125 602 166.695312 L 508.097656 260.785156 C 490.492188 278.421875 480.796875 301.816406 480.789062 326.660156 C 480.789062 351.460938 490.339844 374.386719 507.980469 392.242188 C 544.214844 428.367188 603.230469 428.164062 639.527344 391.78125 L 733.429688 297.703125 C 751.015625 280.074219 760.699219 256.675781 760.703125 231.816406 C 760.703125 207.035156 751.09375 183.78125 733.648438 166.339844 Z M 733.648438 166.339844 " fill-opacity="1" fill-rule="nonzero"/></g><g clip-path="url(#0516e09488)"><path fill="#b60909" d="M 121.5625 778.460938 C 92.113281 749.011719 75.902344 709.847656 75.914062 668.160156 C 75.925781 626.417969 92.199219 587.125 121.738281 557.523438 L 215.632812 463.4375 C 276.605469 402.335938 375.820312 402.078125 436.792969 462.871094 C 436.84375 462.925781 436.90625 462.984375 436.960938 463.042969 C 466.371094 492.453125 482.570312 531.605469 482.578125 573.328125 C 482.578125 615.089844 466.316406 654.382812 436.792969 683.980469 L 342.890625 778.0625 C 281.917969 839.167969 182.703125 839.421875 121.730469 778.628906 C 121.679688 778.578125 121.617188 778.515625 121.5625 778.460938 Z M 392.144531 507.851562 C 392.113281 507.820312 392.082031 507.785156 392.042969 507.75 C 355.808594 471.625 296.792969 471.828125 260.496094 508.207031 L 166.597656 602.296875 C 148.992188 619.933594 139.292969 643.328125 139.289062 668.171875 C 139.285156 692.925781 148.902344 716.171875 166.378906 733.652344 C 166.410156 733.683594 166.441406 733.714844 166.480469 733.75 C 202.714844 769.878906 261.726562 769.675781 298.027344 733.292969 L 391.925781 639.214844 C 409.511719 621.585938 419.199219 598.1875 419.199219 573.332031 C 419.199219 548.550781 409.589844 525.296875 392.144531 507.851562 Z M 392.144531 507.851562 " fill-opacity="1" fill-rule="nonzero"/></g><path fill="#00cac4" d="M 364.609375 560.65625 L 339.359375 535.402344 C 333.957031 530 333.957031 521.242188 339.359375 515.839844 L 515.851562 339.339844 C 521.253906 333.9375 530.015625 333.9375 535.417969 339.339844 L 560.667969 364.59375 C 566.070312 369.996094 566.070312 378.753906 560.667969 384.15625 L 384.175781 560.65625 C 378.773438 566.058594 370.011719 566.058594 364.609375 560.65625 Z M 364.609375 560.65625 " fill-opacity="1" fill-rule="nonzero"/><path fill="#00cac4" d="M 265.644531 246.042969 L 335.382812 315.777344 C 337.4375 317.832031 337.5 321.203125 335.449219 323.253906 L 323.339844 335.363281 C 321.289062 337.414062 317.851562 337.414062 315.800781 335.363281 L 246.058594 265.628906 C 244.007812 263.574219 244.070312 260.203125 246.125 258.152344 L 258.230469 246.042969 C 260.285156 243.992188 263.59375 243.992188 265.644531 246.042969 Z M 265.644531 246.042969 " fill-opacity="1" fill-rule="nonzero"/><path fill="#00cac4" d="M 184.09375 346.125 L 282.710938 346.121094 C 285.613281 346.121094 288.042969 348.460938 288.042969 351.363281 L 288.042969 368.488281 C 288.042969 371.386719 285.609375 373.820312 282.710938 373.820312 L 184.089844 373.824219 C 181.1875 373.824219 178.847656 371.394531 178.847656 368.492188 L 178.851562 351.367188 C 178.851562 348.464844 181.191406 346.128906 184.09375 346.125 Z M 184.09375 346.125 " fill-opacity="1" fill-rule="nonzero"/><path fill="#00cac4" d="M 346.144531 184.074219 L 346.140625 282.691406 C 346.140625 285.59375 348.480469 288.023438 351.382812 288.023438 L 368.507812 288.019531 C 371.410156 288.019531 373.839844 285.589844 373.839844 282.6875 L 373.839844 184.070312 C 373.839844 181.167969 371.410156 178.832031 368.507812 178.832031 L 351.382812 178.832031 C 348.484375 178.835938 346.144531 181.175781 346.144531 184.074219 Z M 346.144531 184.074219 " fill-opacity="1" fill-rule="nonzero"/><path fill="#00cac4" d="M 653.964844 634.363281 L 584.230469 564.621094 C 582.175781 562.570312 578.804688 562.507812 576.753906 564.558594 L 564.644531 576.667969 C 562.59375 578.71875 562.59375 582.15625 564.644531 584.207031 L 634.382812 653.949219 C 636.433594 656 639.804688 655.933594 641.855469 653.882812 L 653.964844 641.773438 C 656.015625 639.722656 656.019531 636.414062 653.964844 634.363281 Z M 653.964844 634.363281 " fill-opacity="1" fill-rule="nonzero"/><path fill="#00cac4" d="M 553.882812 715.914062 L 553.886719 617.292969 C 553.886719 614.394531 551.546875 611.960938 548.644531 611.964844 L 531.519531 611.964844 C 528.621094 611.964844 526.1875 614.398438 526.1875 617.296875 L 526.183594 715.917969 C 526.183594 718.820312 528.617188 721.15625 531.515625 721.15625 L 548.640625 721.15625 C 551.542969 721.15625 553.882812 718.816406 553.882812 715.914062 Z M 553.882812 715.914062 " fill-opacity="1" fill-rule="nonzero"/><path fill="#00cac4" d="M 715.933594 553.863281 L 617.316406 553.863281 C 614.414062 553.863281 611.984375 551.523438 611.984375 548.625 L 611.988281 531.5 C 611.988281 528.597656 614.417969 526.167969 617.320312 526.167969 L 715.9375 526.164062 C 718.839844 526.164062 721.175781 528.597656 721.175781 531.496094 L 721.171875 548.621094 C 721.171875 551.523438 718.832031 553.863281 715.933594 553.863281 Z M 715.933594 553.863281 " fill-opacity="1" fill-rule="nonzero"/></svg>