<svg xmlns="http://www.w3.org/2000/svg" xmlns:xlink="http://www.w3.org/1999/xlink" width="1200" zoomAndPan="magnify" viewBox="0 0 900 899.99999" height="1200" preserveAspectRatio="xMidYMid meet" version="1.0"><defs><clipPath id="e11c1d97a8"><path d="M 490 411 L 650 411 L 650 712.351562 L 490 712.351562 Z M 490 411 " clip-rule="nonzero"/></clipPath><clipPath id="392505edad"><path d="M 318 411 L 478 411 L 478 712.351562 L 318 712.351562 Z M 318 411 " clip-rule="nonzero"/></clipPath><clipPath id="183b4455b4"><path d="M 157.5 490 L 306 490 L 306 516 L 157.5 516 Z M 157.5 490 " clip-rule="nonzero"/></clipPath></defs><path fill="#b60909" d="M 706.578125 385.726562 L 770.640625 321.667969 C 775.429688 316.878906 775.429688 309.082031 770.640625 304.292969 C 766 299.652344 757.894531 299.652344 753.265625 304.292969 L 694.75 362.808594 C 693.507812 364.050781 691.8125 364.753906 690.050781 364.753906 L 662.652344 364.753906 L 662.652344 389.328125 L 697.898438 389.328125 C 701.175781 389.328125 704.257812 388.046875 706.578125 385.726562 " fill-opacity="1" fill-rule="nonzero"/><g clip-path="url(#e11c1d97a8)"><path fill="#b60909" d="M 490.8125 452.613281 L 490.8125 712.191406 C 544.140625 710.066406 591.027344 682.550781 619.714844 641.414062 C 620.664062 640.050781 621.59375 638.675781 622.496094 637.285156 C 623.265625 636.109375 624.035156 634.933594 624.777344 633.738281 C 625.976562 631.785156 627.128906 629.8125 628.25 627.816406 C 628.625 627.144531 629.03125 626.492188 629.398438 625.8125 C 630.855469 623.121094 632.226562 620.382812 633.535156 617.613281 C 633.917969 616.8125 634.265625 616 634.632812 615.191406 C 635.625 613 636.578125 610.789062 637.476562 608.546875 C 645.105469 589.558594 649.347656 568.855469 649.347656 547.167969 L 649.347656 411.417969 C 628.71875 425.4375 578.773438 451.351562 490.8125 452.613281 " fill-opacity="1" fill-rule="nonzero"/></g><path fill="#b60909" d="M 260.917969 619.945312 L 196.859375 684.007812 C 194.539062 686.328125 193.261719 689.417969 193.261719 692.695312 C 193.261719 695.976562 194.539062 699.058594 196.859375 701.382812 C 201.511719 706.03125 209.59375 706.019531 214.238281 701.382812 L 272.75 642.867188 C 273.992188 641.625 275.6875 640.921875 277.449219 640.921875 L 332.296875 640.921875 C 332.132812 640.660156 332.003906 640.382812 331.839844 640.121094 C 329.847656 636.863281 327.976562 633.523438 326.191406 630.136719 C 325.71875 629.230469 325.257812 628.324219 324.796875 627.414062 C 322.960938 623.78125 321.207031 620.105469 319.621094 616.347656 L 269.601562 616.347656 C 266.324219 616.347656 263.238281 617.628906 260.917969 619.945312 " fill-opacity="1" fill-rule="nonzero"/><g clip-path="url(#392505edad)"><path fill="#b60909" d="M 318.96875 411.417969 L 318.96875 547.167969 C 318.96875 568.875 323.21875 589.597656 330.863281 608.605469 C 331.742188 610.796875 332.679688 612.964844 333.652344 615.121094 C 334.035156 615.960938 334.402344 616.808594 334.796875 617.648438 C 336.070312 620.347656 337.414062 623.019531 338.835938 625.648438 C 339.246094 626.402344 339.691406 627.140625 340.113281 627.890625 C 341.21875 629.855469 342.351562 631.804688 343.535156 633.722656 C 344.28125 634.933594 345.0625 636.117188 345.835938 637.308594 C 346.726562 638.675781 347.640625 640.03125 348.574219 641.371094 C 377.257812 682.53125 424.160156 710.066406 477.511719 712.191406 L 477.511719 452.613281 C 389.542969 451.351562 339.601562 425.4375 318.96875 411.417969 " fill-opacity="1" fill-rule="nonzero"/></g><path fill="#b60909" d="M 484.15625 439.394531 C 588.257812 439.394531 638.984375 403.214844 649.347656 394.820312 L 649.347656 367.109375 C 649.347656 364.660156 649.113281 362.074219 648.632812 359.207031 C 648.484375 358.308594 648.535156 357.410156 648.742188 356.546875 C 645.394531 335.660156 627.300781 319.632812 605.480469 319.632812 L 362.835938 319.632812 C 341.019531 319.632812 322.917969 335.664062 319.574219 356.550781 C 319.78125 357.414062 319.835938 358.308594 319.683594 359.199219 C 319.207031 362.070312 318.972656 364.640625 318.96875 367.0625 L 318.96875 394.820312 C 329.332031 403.214844 380.058594 439.394531 484.15625 439.394531 " fill-opacity="1" fill-rule="nonzero"/><path fill="#b60909" d="M 627.332031 149.488281 C 629.613281 147.125 630.839844 144.015625 630.78125 140.738281 C 630.726562 137.457031 629.394531 134.394531 627.03125 132.113281 L 627.027344 132.113281 C 622.164062 127.40625 614.363281 127.546875 609.65625 132.414062 L 555.058594 188.925781 C 555.53125 189.253906 555.949219 189.652344 556.421875 189.988281 C 558.800781 191.726562 561.121094 193.542969 563.367188 195.445312 C 564.234375 196.175781 565.085938 196.914062 565.925781 197.664062 C 568.140625 199.644531 570.273438 201.699219 572.339844 203.828125 C 572.757812 204.261719 573.222656 204.632812 573.632812 205.070312 L 627.332031 149.488281 " fill-opacity="1" fill-rule="nonzero"/><path fill="#b60909" d="M 357.84375 132.410156 C 355.433594 129.921875 352.21875 128.671875 349 128.671875 C 345.925781 128.671875 342.847656 129.8125 340.472656 132.113281 C 338.105469 134.394531 336.773438 137.457031 336.71875 140.738281 C 336.660156 144.015625 337.886719 147.125 340.167969 149.488281 L 394.273438 205.496094 C 394.75 204.980469 395.292969 204.535156 395.78125 204.035156 C 397.804688 201.9375 399.886719 199.902344 402.054688 197.953125 C 402.878906 197.210938 403.722656 196.496094 404.570312 195.773438 C 406.875 193.8125 409.242188 191.9375 411.679688 190.144531 C 412.058594 189.867188 412.394531 189.550781 412.777344 189.277344 L 357.84375 132.410156 " fill-opacity="1" fill-rule="nonzero"/><path fill="#b60909" d="M 566.828125 217.472656 C 565.839844 216.339844 564.828125 215.226562 563.800781 214.136719 C 562.839844 213.121094 561.867188 212.113281 560.867188 211.132812 C 559.644531 209.933594 558.394531 208.761719 557.121094 207.625 C 556.210938 206.808594 555.292969 206.007812 554.351562 205.222656 C 552.824219 203.945312 551.273438 202.703125 549.675781 201.511719 C 548.742188 200.8125 547.78125 200.152344 546.824219 199.476562 C 545.625 198.640625 544.40625 197.828125 543.171875 197.039062 C 526.121094 186.097656 505.878906 179.726562 484.15625 179.726562 C 462.425781 179.726562 442.167969 186.109375 425.109375 197.0625 C 423.652344 197.996094 422.226562 198.960938 420.824219 199.957031 C 419.8125 200.671875 418.804688 201.398438 417.824219 202.148438 C 416.410156 203.226562 415.03125 204.339844 413.667969 205.480469 C 412.730469 206.269531 411.800781 207.070312 410.890625 207.886719 C 409.445312 209.183594 408.03125 210.515625 406.660156 211.890625 C 405.746094 212.800781 404.867188 213.742188 403.992188 214.683594 C 403.152344 215.582031 402.332031 216.507812 401.519531 217.4375 C 384.726562 236.703125 374.523438 261.855469 374.523438 289.363281 L 374.523438 306.328125 L 593.796875 306.328125 L 593.796875 289.363281 C 593.796875 261.875 583.601562 236.738281 566.828125 217.472656 " fill-opacity="1" fill-rule="nonzero"/><path fill="#b60909" d="M 797.386719 515.121094 C 804.160156 515.121094 809.671875 509.609375 809.671875 502.835938 C 809.671875 496.058594 804.160156 490.546875 797.386719 490.546875 L 662.652344 490.546875 L 662.652344 515.121094 L 797.386719 515.121094 " fill-opacity="1" fill-rule="nonzero"/><path fill="#b60909" d="M 272.75 362.808594 L 214.238281 304.292969 C 211.917969 301.972656 208.835938 300.695312 205.554688 300.695312 C 202.269531 300.695312 199.183594 301.972656 196.859375 304.292969 C 192.070312 309.082031 192.070312 316.878906 196.859375 321.667969 L 260.917969 385.722656 C 263.242188 388.046875 266.324219 389.328125 269.601562 389.328125 L 305.667969 389.328125 L 305.667969 364.753906 L 277.449219 364.753906 C 275.6875 364.753906 273.992188 364.050781 272.75 362.808594 " fill-opacity="1" fill-rule="nonzero"/><path fill="#b60909" d="M 690.050781 640.921875 C 691.8125 640.921875 693.507812 641.625 694.75 642.867188 L 753.261719 701.382812 C 757.90625 706.019531 765.988281 706.019531 770.640625 701.382812 C 772.960938 699.058594 774.238281 695.976562 774.238281 692.695312 C 774.238281 689.417969 772.960938 686.328125 770.640625 684.007812 L 706.582031 619.945312 C 704.261719 617.628906 701.175781 616.347656 697.898438 616.347656 L 648.695312 616.347656 C 647.109375 620.109375 645.347656 623.792969 643.511719 627.441406 C 643.054688 628.335938 642.605469 629.226562 642.136719 630.113281 C 640.339844 633.519531 638.460938 636.875 636.457031 640.152344 C 636.304688 640.402344 636.175781 640.667969 636.023438 640.921875 L 690.050781 640.921875 " fill-opacity="1" fill-rule="nonzero"/><g clip-path="url(#183b4455b4)"><path fill="#b60909" d="M 157.828125 502.835938 C 157.828125 509.609375 163.339844 515.121094 170.113281 515.121094 L 305.667969 515.121094 L 305.667969 490.546875 L 170.113281 490.546875 C 163.339844 490.546875 157.828125 496.058594 157.828125 502.835938 " fill-opacity="1" fill-rule="nonzero"/></g></svg>