<svg xmlns="http://www.w3.org/2000/svg" xmlns:xlink="http://www.w3.org/1999/xlink" width="1200" zoomAndPan="magnify" viewBox="0 0 900 899.99999" height="1200" preserveAspectRatio="xMidYMid meet" version="1.0"><defs><clipPath id="623856ec34"><path d="M 130.039062 73.417969 L 769.960938 73.417969 L 769.960938 826.582031 L 130.039062 826.582031 Z M 130.039062 73.417969 " clip-rule="nonzero"/></clipPath><clipPath id="ffa6bdb979"><path d="M 129.140625 72.519531 L 770.859375 72.519531 L 770.859375 827.476562 L 129.140625 827.476562 Z M 129.140625 72.519531 " clip-rule="nonzero"/></clipPath></defs><g clip-path="url(#623856ec34)"><path fill="#00cac4" d="M 770.855469 695.359375 L 770.855469 129.140625 C 770.855469 114.039062 764.816406 99.695312 754.246094 89.128906 C 743.679688 78.558594 729.144531 72.519531 714.234375 72.519531 L 276.925781 72.519531 C 261.828125 72.519531 247.484375 78.558594 236.914062 89.128906 L 145.753906 180.289062 C 135.183594 190.859375 129.144531 205.203125 129.144531 220.300781 L 129.144531 770.851562 C 129.144531 802.183594 154.433594 827.476562 185.765625 827.476562 L 374.503906 827.476562 C 442.074219 827.476562 604.386719 817.660156 695.738281 778.78125 C 742.546875 758.960938 770.855469 729.898438 770.855469 695.359375 Z M 299.007812 110.265625 L 299.007812 185.761719 C 299.007812 217.09375 273.71875 242.382812 242.386719 242.382812 L 166.890625 242.382812 L 166.890625 770.851562 C 166.890625 781.234375 175.382812 789.726562 185.765625 789.726562 L 374.503906 789.726562 C 379.410156 789.726562 384.695312 789.726562 390.546875 789.726562 C 489.636719 753.488281 541.914062 706.117188 564.753906 650.625 C 567.019531 645.34375 571.546875 641.191406 577.019531 639.679688 C 582.496094 637.980469 588.535156 639.113281 593.253906 642.511719 C 635.339844 672.710938 681.582031 686.488281 733.296875 679.691406 L 733.296875 129.140625 C 733.296875 124.042969 731.222656 119.324219 727.824219 115.738281 C 724.238281 112.152344 719.519531 110.265625 714.421875 110.265625 Z M 722.160156 718.382812 C 674.222656 721.59375 630.433594 709.703125 589.855469 685.164062 C 570.414062 721.214844 539.085938 754.621094 491.332031 783.6875 C 556.636719 777.460938 630.246094 765.570312 681.015625 744.050781 C 697.625 737.070312 711.59375 728.953125 721.40625 719.515625 L 722.351562 718.574219 Z M 412.25 657.609375 C 412.25 647.230469 403.757812 638.734375 393.378906 638.734375 L 223.511719 638.734375 C 213.132812 638.734375 204.640625 647.230469 204.640625 657.609375 L 204.640625 733.105469 C 204.640625 743.484375 213.132812 751.980469 223.511719 751.980469 L 393.378906 751.980469 C 403.757812 751.980469 412.25 743.484375 412.25 733.105469 Z M 374.503906 676.484375 L 374.503906 714.230469 L 242.386719 714.230469 L 242.386719 676.484375 Z M 374.503906 327.882812 C 366.011719 335.433594 358.648438 344.492188 352.609375 354.304688 L 313.164062 344.492188 C 304.671875 342.414062 298.820312 334.867188 298.820312 326.183594 L 298.820312 299.003906 C 298.820312 288.625 290.328125 280.132812 279.945312 280.132812 C 269.566406 280.132812 261.070312 288.625 261.070312 299.003906 L 261.070312 326.183594 C 261.070312 352.230469 278.8125 374.878906 303.914062 381.105469 L 338.832031 389.789062 C 337.324219 396.960938 336.566406 404.511719 336.566406 412.25 L 298.820312 412.25 C 288.4375 412.25 279.945312 420.742188 279.945312 431.121094 C 279.945312 441.503906 288.4375 449.996094 298.820312 449.996094 L 336.566406 449.996094 C 336.566406 457.734375 337.324219 465.285156 338.832031 472.457031 L 303.914062 481.140625 C 278.625 487.367188 261.070312 510.015625 261.070312 536.0625 L 261.070312 563.242188 C 261.070312 573.621094 269.566406 582.113281 279.945312 582.113281 C 290.328125 582.113281 298.820312 573.621094 298.820312 563.242188 L 298.820312 536.0625 C 298.820312 527.378906 304.671875 519.832031 313.164062 517.753906 L 352.609375 507.941406 C 372.429688 540.96875 408.476562 563.242188 450 563.242188 C 491.523438 563.242188 527.570312 540.96875 547.390625 507.941406 L 586.835938 517.753906 C 595.328125 519.832031 601.179688 527.378906 601.179688 536.0625 L 601.179688 563.242188 C 601.179688 573.621094 609.671875 582.113281 620.054688 582.113281 C 630.433594 582.113281 638.929688 573.621094 638.929688 563.242188 L 638.929688 536.0625 C 638.929688 510.015625 621.1875 487.367188 596.082031 481.140625 L 561.167969 472.457031 C 562.675781 465.285156 563.433594 457.734375 563.433594 449.996094 L 601.179688 449.996094 C 611.5625 449.996094 620.054688 441.503906 620.054688 431.121094 C 620.054688 420.742188 611.5625 412.25 601.179688 412.25 L 563.433594 412.25 C 563.433594 404.511719 562.675781 396.960938 561.167969 389.789062 L 596.082031 381.105469 C 621.375 374.878906 638.929688 352.230469 638.929688 326.183594 L 638.929688 299.003906 C 638.929688 288.625 630.433594 280.132812 620.054688 280.132812 C 609.671875 280.132812 601.179688 288.625 601.179688 299.003906 L 601.179688 326.183594 C 601.179688 334.867188 595.328125 342.414062 586.835938 344.492188 L 547.390625 354.304688 C 541.539062 344.492188 534.175781 335.433594 525.496094 327.882812 L 525.496094 299.003906 C 525.496094 257.292969 491.710938 223.507812 450 223.507812 C 450 223.507812 446.601562 223.507812 450 223.507812 C 408.289062 223.507812 374.503906 257.292969 374.503906 299.003906 Z M 450 525.492188 C 408.289062 525.492188 374.503906 491.707031 374.503906 449.996094 L 374.503906 412.25 C 374.503906 370.539062 408.289062 336.753906 450 336.753906 C 491.710938 336.753906 525.496094 370.539062 525.496094 412.25 L 525.496094 449.996094 C 525.496094 491.707031 491.710938 525.492188 450 525.492188 Z M 412.25 487.746094 L 487.746094 487.746094 C 498.128906 487.746094 506.621094 479.25 506.621094 468.871094 C 506.621094 458.488281 498.128906 449.996094 487.746094 449.996094 L 412.25 449.996094 C 401.871094 449.996094 393.378906 458.488281 393.378906 468.871094 C 393.378906 479.25 401.871094 487.746094 412.25 487.746094 Z M 487.746094 305.421875 L 487.746094 299.003906 C 487.746094 278.242188 470.761719 261.257812 450 261.257812 C 429.238281 261.257812 412.25 278.242188 412.25 299.003906 L 412.25 305.421875 C 424.140625 301.269531 436.789062 299.003906 450 299.003906 C 446.601562 299.003906 450 299.003906 450 299.003906 C 463.210938 299.003906 475.855469 301.269531 487.746094 305.421875 Z M 261.261719 118.003906 L 174.628906 204.636719 L 242.386719 204.636719 C 252.765625 204.636719 261.261719 196.140625 261.261719 185.761719 Z M 261.261719 118.003906 " fill-opacity="1" fill-rule="evenodd"/></g><g clip-path="url(#ffa6bdb979)"><path stroke-linecap="butt" transform="matrix(0.75, 0, 0, 0.75, 129.140417, 72.518219)" fill="none" stroke-linejoin="miter" d="M 0.000277011 0.00174913 L 0.000277011 1006.611177 L 855.625377 1006.611177 L 855.625377 0.00174913 L 0.000277011 0.00174913 " stroke="#000000" stroke-width="8" stroke-opacity="1" stroke-miterlimit="4"/></g></svg>