<svg xmlns="http://www.w3.org/2000/svg" xmlns:xlink="http://www.w3.org/1999/xlink" width="1200" zoomAndPan="magnify" viewBox="0 0 900 899.99999" height="1200" preserveAspectRatio="xMidYMid meet" version="1.0"><defs><clipPath id="c8ca426094"><path d="M 222.289062 55.09375 L 677.539062 55.09375 L 677.539062 877.84375 L 222.289062 877.84375 Z M 222.289062 55.09375 " clip-rule="nonzero"/></clipPath><clipPath id="3628ca530f"><path d="M 341.714844 353.351562 L 558.445312 353.351562 L 558.445312 546.851562 L 341.714844 546.851562 Z M 341.714844 353.351562 " clip-rule="nonzero"/></clipPath></defs><path fill="#00cac4" d="M 616.347656 361.660156 L 606.496094 361.660156 L 606.496094 305.667969 L 550.503906 305.667969 L 550.503906 295.8125 L 616.347656 295.8125 L 616.347656 361.660156 " fill-opacity="1" fill-rule="nonzero"/><path fill="#00cac4" d="M 285.257812 361.652344 L 275.40625 361.652344 L 275.40625 295.8125 L 341.242188 295.8125 L 341.242188 305.667969 L 285.257812 305.667969 L 285.257812 361.652344 " fill-opacity="1" fill-rule="nonzero"/><path fill="#00cac4" d="M 616.347656 636.757812 L 550.507812 636.757812 L 550.507812 626.902344 L 606.496094 626.902344 L 606.496094 570.917969 L 616.347656 570.917969 L 616.347656 636.757812 " fill-opacity="1" fill-rule="nonzero"/><path fill="#00cac4" d="M 341.242188 636.757812 L 275.40625 636.757812 L 275.40625 571.109375 L 285.257812 571.109375 L 285.257812 626.902344 L 341.242188 626.902344 L 341.242188 636.757812 " fill-opacity="1" fill-rule="nonzero"/><g clip-path="url(#c8ca426094)"><path fill="#00cac4" d="M 650.675781 795.636719 C 650.675781 803.011719 644.691406 808.992188 637.316406 808.992188 L 252.839844 808.992188 C 245.464844 808.992188 239.480469 803.011719 239.480469 795.636719 L 239.480469 136.9375 C 239.480469 129.558594 245.464844 123.574219 252.839844 123.574219 L 637.316406 123.574219 C 644.691406 123.574219 650.675781 129.558594 650.675781 136.9375 Z M 487.605469 858.304688 L 402.550781 858.304688 C 394.023438 858.304688 387.078125 851.359375 387.078125 842.824219 C 387.078125 834.292969 394.023438 827.351562 402.550781 827.351562 L 487.605469 827.351562 C 496.136719 827.351562 503.078125 834.292969 503.078125 842.824219 C 503.078125 851.359375 496.136719 858.304688 487.605469 858.304688 Z M 367.679688 87.183594 L 512.121094 87.183594 C 515.464844 87.183594 518.175781 89.898438 518.175781 93.242188 C 518.175781 96.589844 515.464844 99.304688 512.121094 99.304688 L 367.679688 99.304688 C 364.332031 99.304688 361.617188 96.589844 361.617188 93.242188 C 361.617188 89.898438 364.332031 87.183594 367.679688 87.183594 Z M 552.332031 82.394531 C 558.324219 82.394531 563.183594 87.253906 563.183594 93.242188 C 563.183594 99.234375 558.324219 104.09375 552.332031 104.09375 C 546.339844 104.09375 541.484375 99.234375 541.484375 93.242188 C 541.484375 87.253906 546.339844 82.394531 552.332031 82.394531 Z M 677.664062 316.199219 L 677.664062 233.277344 C 677.664062 227.59375 673.34375 222.925781 667.808594 222.367188 L 667.808594 116.769531 C 667.808594 82.707031 640.191406 55.09375 606.132812 55.09375 L 284.027344 55.09375 C 249.964844 55.09375 222.347656 82.707031 222.347656 116.769531 L 222.347656 815.800781 C 222.347656 849.867188 249.964844 877.484375 284.027344 877.484375 L 606.132812 877.484375 C 640.191406 877.484375 667.808594 849.867188 667.808594 815.800781 L 667.808594 400.921875 C 673.34375 400.394531 677.664062 396.011719 677.664062 393.070312 L 677.664062 350.109375 C 677.664062 347.164062 673.34375 342.785156 667.808594 342.253906 L 667.808594 327.109375 C 673.34375 326.554688 677.664062 321.882812 677.664062 316.199219 " fill-opacity="1" fill-rule="nonzero"/></g><g clip-path="url(#3628ca530f)"><path fill="#d91a1a" d="M 555.53125 514.433594 L 468.789062 364.15625 C 466.816406 360.738281 463.980469 357.9375 460.585938 356.054688 C 457.398438 354.285156 453.765625 353.351562 450.082031 353.351562 C 446.398438 353.351562 442.765625 354.285156 439.574219 356.054688 C 436.179688 357.9375 433.34375 360.738281 431.371094 364.15625 L 344.632812 514.433594 C 342.660156 517.851562 341.652344 521.710938 341.71875 525.59375 C 341.785156 529.242188 342.789062 532.855469 344.632812 536.046875 C 346.472656 539.234375 349.097656 541.914062 352.226562 543.796875 C 355.550781 545.792969 359.394531 546.851562 363.339844 546.851562 L 536.820312 546.851562 C 540.765625 546.851562 544.609375 545.792969 547.9375 543.796875 C 551.0625 541.914062 553.6875 539.234375 555.53125 536.046875 C 557.371094 532.855469 558.378906 529.242188 558.441406 525.59375 C 558.511719 521.710938 557.503906 517.851562 555.53125 514.433594 " fill-opacity="1" fill-rule="nonzero"/></g><path fill="#ffffff" d="M 450.082031 364.851562 C 448.34375 364.851562 446.636719 365.289062 445.148438 366.117188 C 443.582031 366.988281 442.257812 368.296875 441.332031 369.90625 L 354.589844 520.1875 C 353.660156 521.796875 353.1875 523.597656 353.21875 525.390625 C 353.246094 527.09375 353.722656 528.789062 354.589844 530.292969 C 355.460938 531.796875 356.691406 533.058594 358.148438 533.933594 C 359.6875 534.859375 361.484375 535.347656 363.339844 535.347656 L 536.820312 535.347656 C 538.679688 535.347656 540.476562 534.859375 542.011719 533.9375 C 543.472656 533.058594 544.703125 531.796875 545.570312 530.292969 C 546.4375 528.789062 546.914062 527.09375 546.945312 525.390625 C 546.976562 523.597656 546.5 521.796875 545.570312 520.1875 L 458.832031 369.910156 C 457.902344 368.296875 456.582031 366.988281 455.011719 366.117188 C 453.523438 365.289062 451.816406 364.851562 450.082031 364.851562 Z M 536.820312 540.460938 L 363.339844 540.460938 C 360.554688 540.460938 357.847656 539.71875 355.515625 538.316406 C 353.316406 536.996094 351.464844 535.105469 350.164062 532.851562 C 348.863281 530.597656 348.152344 528.046875 348.109375 525.480469 C 348.0625 522.757812 348.769531 520.046875 350.164062 517.628906 L 436.902344 367.351562 C 438.296875 364.9375 440.292969 362.964844 442.671875 361.644531 C 444.917969 360.398438 447.480469 359.742188 450.082031 359.742188 C 452.683594 359.742188 455.246094 360.398438 457.488281 361.644531 C 459.871094 362.964844 461.863281 364.9375 463.257812 367.351562 L 550 517.628906 C 551.390625 520.046875 552.101562 522.761719 552.054688 525.480469 C 552.011719 528.046875 551.296875 530.597656 549.996094 532.851562 C 548.699219 535.101562 546.847656 536.996094 544.644531 538.316406 C 542.3125 539.71875 539.605469 540.460938 536.820312 540.460938 " fill-opacity="1" fill-rule="nonzero"/><path fill="#ffffff" d="M 450.082031 500.226562 C 442.496094 500.226562 436.328125 506.398438 436.328125 513.984375 C 436.328125 521.566406 442.496094 527.738281 450.082031 527.738281 C 457.664062 527.738281 463.835938 521.566406 463.835938 513.984375 C 463.835938 506.398438 457.664062 500.226562 450.082031 500.226562 " fill-opacity="1" fill-rule="nonzero"/><path fill="#ffffff" d="M 440.019531 475.851562 C 440.320312 481.183594 444.738281 485.363281 450.082031 485.363281 C 455.421875 485.363281 459.84375 481.183594 460.144531 475.851562 L 463.761719 411.398438 C 463.976562 407.597656 462.652344 403.980469 460.039062 401.214844 C 457.421875 398.445312 453.886719 396.921875 450.082031 396.921875 C 446.273438 396.921875 442.738281 398.445312 440.125 401.214844 C 437.507812 403.980469 436.1875 407.597656 436.402344 411.398438 L 440.019531 475.851562 " fill-opacity="1" fill-rule="nonzero"/></svg>